<svg width="58" height="58" viewBox="0 0 58 58" fill="none" xmlns="http://www.w3.org/2000/svg">
<g filter="url(#filter0_d_1880_225116)">
<path d="M11 17C11 12.5817 14.5817 9 19 9H39C43.4183 9 47 12.5817 47 17V37C47 41.4183 43.4183 45 39 45H19C14.5817 45 11 41.4183 11 37V17Z" fill="#716C6C"/>
<path d="M21.5 22.417L29 25.7503M36.5 22.417L29 25.7503M29 34.917V25.7503" stroke="white" stroke-width="1.25" stroke-linejoin="round"/>
<path d="M21.5 31.2581V22.7413C21.5 22.5437 21.6164 22.3646 21.7969 22.2844L28.7969 19.1733C28.9262 19.1158 29.0738 19.1158 29.2031 19.1733L36.2031 22.2844C36.3836 22.3646 36.5 22.5437 36.5 22.7413V31.2581C36.5 31.4557 36.3836 31.6347 36.2031 31.715L29.2031 34.8261C29.0738 34.8835 28.9262 34.8835 28.7969 34.8261L21.7969 31.715C21.6164 31.6347 21.5 31.4557 21.5 31.2581Z" stroke="white" stroke-width="1.25" stroke-linecap="round" stroke-linejoin="round"/>
<path d="M25.25 20.7495L32.4531 23.9509C32.6336 24.0311 32.75 24.2102 32.75 24.4078V27.4162" stroke="white" stroke-width="1.25" stroke-linecap="round" stroke-linejoin="round"/>
</g>
<defs>
<filter id="filter0_d_1880_225116" x="0" y="0" width="58" height="58" filterUnits="userSpaceOnUse" color-interpolation-filters="sRGB">
<feFlood flood-opacity="0" result="BackgroundImageFix"/>
<feColorMatrix in="SourceAlpha" type="matrix" values="0 0 0 0 0 0 0 0 0 0 0 0 0 0 0 0 0 0 127 0" result="hardAlpha"/>
<feMorphology radius="1" operator="dilate" in="SourceAlpha" result="effect1_dropShadow_1880_225116"/>
<feOffset dy="2"/>
<feGaussianBlur stdDeviation="5"/>
<feComposite in2="hardAlpha" operator="out"/>
<feColorMatrix type="matrix" values="0 0 0 0 0.203922 0 0 0 0 0.215686 0 0 0 0 0.247059 0 0 0 0.1 0"/>
<feBlend mode="normal" in2="BackgroundImageFix" result="effect1_dropShadow_1880_225116"/>
<feBlend mode="normal" in="SourceGraphic" in2="effect1_dropShadow_1880_225116" result="shape"/>
</filter>
</defs>
</svg>
