<svg width="20" height="20" viewBox="0 0 20 20" fill="none" xmlns="http://www.w3.org/2000/svg">
<path d="M2.5 5.41699L10 8.75033M17.5 5.41699L10 8.75033M10 17.917V8.75033" stroke="#716C6C" stroke-width="1.25" stroke-linejoin="round"/>
<path d="M2.5 14.2581V5.74128C2.5 5.54368 2.61637 5.36462 2.79693 5.28437L9.79693 2.17326C9.92621 2.1158 10.0738 2.1158 10.2031 2.17326L17.2031 5.28437C17.3836 5.36462 17.5 5.54368 17.5 5.74128V14.2581C17.5 14.4557 17.3836 14.6347 17.2031 14.715L10.2031 17.8261C10.0738 17.8835 9.92621 17.8835 9.79693 17.8261L2.79693 14.715C2.61637 14.6347 2.5 14.4557 2.5 14.2581Z" stroke="#716C6C" stroke-width="1.25" stroke-linecap="round" stroke-linejoin="round"/>
<path d="M6.25 3.74951L13.4531 6.95088C13.6336 7.03113 13.75 7.21019 13.75 7.40778V10.4162" stroke="#716C6C" stroke-width="1.25" stroke-linecap="round" stroke-linejoin="round"/>
</svg>
