<svg width="58" height="58" viewBox="0 0 58 58" fill="none" xmlns="http://www.w3.org/2000/svg">
<g filter="url(#filter0_d_1880_225121)">
<path d="M11 17C11 12.5817 14.5817 9 19 9H39C43.4183 9 47 12.5817 47 17V37C47 41.4183 43.4183 45 39 45H19C14.5817 45 11 41.4183 11 37V17Z" fill="white"/>
<path d="M26.0833 20.3335H24C23.0795 20.3335 22.3333 21.0797 22.3333 22.0002V33.6668C22.3333 34.5873 23.0795 35.3335 24 35.3335H29" stroke="#FEB343" stroke-width="1.25" stroke-linecap="round"/>
<path d="M31.9167 20.3335H34C34.9205 20.3335 35.6667 21.0797 35.6667 22.0002V29.5002" stroke="#FEB343" stroke-width="1.25" stroke-linecap="round"/>
<path d="M25.6667 22.3335V20.7502C25.6667 20.52 25.8532 20.3335 26.0834 20.3335C26.3135 20.3335 26.5035 20.1469 26.543 19.9201C26.6664 19.2099 27.145 17.8335 29 17.8335C30.855 17.8335 31.3336 19.2099 31.4571 19.9201C31.4965 20.1469 31.6866 20.3335 31.9167 20.3335C32.1468 20.3335 32.3334 20.52 32.3334 20.7502V22.3335C32.3334 22.6096 32.1095 22.8335 31.8334 22.8335H26.1667C25.8905 22.8335 25.6667 22.6096 25.6667 22.3335Z" stroke="#FEB343" stroke-width="1.25" stroke-linecap="round"/>
<path d="M31.9167 34.0835L33.5834 35.7502L37.75 31.5835" stroke="#FEB343" stroke-width="1.25" stroke-linecap="round" stroke-linejoin="round"/>
</g>
<defs>
<filter id="filter0_d_1880_225121" x="0" y="0" width="58" height="58" filterUnits="userSpaceOnUse" color-interpolation-filters="sRGB">
<feFlood flood-opacity="0" result="BackgroundImageFix"/>
<feColorMatrix in="SourceAlpha" type="matrix" values="0 0 0 0 0 0 0 0 0 0 0 0 0 0 0 0 0 0 127 0" result="hardAlpha"/>
<feMorphology radius="1" operator="dilate" in="SourceAlpha" result="effect1_dropShadow_1880_225121"/>
<feOffset dy="2"/>
<feGaussianBlur stdDeviation="5"/>
<feComposite in2="hardAlpha" operator="out"/>
<feColorMatrix type="matrix" values="0 0 0 0 0.203922 0 0 0 0 0.215686 0 0 0 0 0.247059 0 0 0 0.1 0"/>
<feBlend mode="normal" in2="BackgroundImageFix" result="effect1_dropShadow_1880_225121"/>
<feBlend mode="normal" in="SourceGraphic" in2="effect1_dropShadow_1880_225121" result="shape"/>
</filter>
</defs>
</svg>
