<svg width="58" height="58" viewBox="0 0 58 58" fill="none" xmlns="http://www.w3.org/2000/svg">
<g filter="url(#filter0_d_1880_225134)">
<path d="M11 17C11 12.5817 14.5817 9 19 9H39C43.4183 9 47 12.5817 47 17V37C47 41.4183 43.4183 45 39 45H19C14.5817 45 11 41.4183 11 37V17Z" fill="#FEB343" shape-rendering="crispEdges"/>
<path d="M31.9167 29.9165L34.8334 32.8332" stroke="white" stroke-width="1.25" stroke-linecap="round" stroke-linejoin="round"/>
<path d="M23.1667 26.1665C23.1667 28.9279 25.4053 31.1665 28.1667 31.1665C29.5498 31.1665 30.8017 30.6049 31.7069 29.6973C32.609 28.7929 33.1667 27.5448 33.1667 26.1665C33.1667 23.4051 30.9281 21.1665 28.1667 21.1665C25.4053 21.1665 23.1667 23.4051 23.1667 26.1665Z" stroke="white" stroke-width="1.25" stroke-linecap="round" stroke-linejoin="round"/>
</g>
<defs>
<filter id="filter0_d_1880_225134" x="0" y="0" width="58" height="58" filterUnits="userSpaceOnUse" color-interpolation-filters="sRGB">
<feFlood flood-opacity="0" result="BackgroundImageFix"/>
<feColorMatrix in="SourceAlpha" type="matrix" values="0 0 0 0 0 0 0 0 0 0 0 0 0 0 0 0 0 0 127 0" result="hardAlpha"/>
<feMorphology radius="1" operator="dilate" in="SourceAlpha" result="effect1_dropShadow_1880_225134"/>
<feOffset dy="2"/>
<feGaussianBlur stdDeviation="5"/>
<feComposite in2="hardAlpha" operator="out"/>
<feColorMatrix type="matrix" values="0 0 0 0 0.203922 0 0 0 0 0.215686 0 0 0 0 0.247059 0 0 0 0.1 0"/>
<feBlend mode="normal" in2="BackgroundImageFix" result="effect1_dropShadow_1880_225134"/>
<feBlend mode="normal" in="SourceGraphic" in2="effect1_dropShadow_1880_225134" result="shape"/>
</filter>
</defs>
</svg>
