<svg width="58" height="58" viewBox="0 0 58 58" fill="none" xmlns="http://www.w3.org/2000/svg">
<g filter="url(#filter0_d_1880_225111)">
<path d="M11 17C11 12.5817 14.5817 9 19 9H39C43.4183 9 47 12.5817 47 17V37C47 41.4183 43.4183 45 39 45H19C14.5817 45 11 41.4183 11 37V17Z" fill="#30AB30"/>
<path d="M22.3333 34.8332V19.1665C22.3333 18.8904 22.5572 18.6665 22.8333 18.6665H32.5429C32.6755 18.6665 32.8027 18.7192 32.8964 18.813L35.5202 21.4367C35.614 21.5305 35.6666 21.6577 35.6666 21.7903V34.8332C35.6666 35.1093 35.4428 35.3332 35.1666 35.3332H22.8333C22.5572 35.3332 22.3333 35.1093 22.3333 34.8332Z" stroke="white" stroke-width="1.25" stroke-linecap="round" stroke-linejoin="round"/>
<path d="M25.6667 25.3335L32.3334 25.3335" stroke="white" stroke-width="1.25" stroke-linecap="round" stroke-linejoin="round"/>
<path d="M25.6667 32L32.3334 32" stroke="white" stroke-width="1.25" stroke-linecap="round" stroke-linejoin="round"/>
<path d="M25.6667 28.6665L29 28.6665" stroke="white" stroke-width="1.25" stroke-linecap="round" stroke-linejoin="round"/>
<path d="M32.3333 18.6665V21.4998C32.3333 21.776 32.5572 21.9998 32.8333 21.9998H35.6666" stroke="white" stroke-width="1.25" stroke-linecap="round" stroke-linejoin="round"/>
</g>
<defs>
<filter id="filter0_d_1880_225111" x="0" y="0" width="58" height="58" filterUnits="userSpaceOnUse" color-interpolation-filters="sRGB">
<feFlood flood-opacity="0" result="BackgroundImageFix"/>
<feColorMatrix in="SourceAlpha" type="matrix" values="0 0 0 0 0 0 0 0 0 0 0 0 0 0 0 0 0 0 127 0" result="hardAlpha"/>
<feMorphology radius="1" operator="dilate" in="SourceAlpha" result="effect1_dropShadow_1880_225111"/>
<feOffset dy="2"/>
<feGaussianBlur stdDeviation="5"/>
<feComposite in2="hardAlpha" operator="out"/>
<feColorMatrix type="matrix" values="0 0 0 0 0.203922 0 0 0 0 0.215686 0 0 0 0 0.247059 0 0 0 0.1 0"/>
<feBlend mode="normal" in2="BackgroundImageFix" result="effect1_dropShadow_1880_225111"/>
<feBlend mode="normal" in="SourceGraphic" in2="effect1_dropShadow_1880_225111" result="shape"/>
</filter>
</defs>
</svg>
