<svg width="20" height="20" viewBox="0 0 20 20" fill="none" xmlns="http://www.w3.org/2000/svg">
<path d="M7.08331 3.3335H4.99998C4.0795 3.3335 3.33331 4.07969 3.33331 5.00016V16.6668C3.33331 17.5873 4.0795 18.3335 4.99998 18.3335H9.99998" stroke="#30AB30" stroke-width="1.25" stroke-linecap="round"/>
<path d="M12.9167 3.3335H15C15.9205 3.3335 16.6667 4.07969 16.6667 5.00016V12.5002" stroke="#30AB30" stroke-width="1.25" stroke-linecap="round"/>
<path d="M6.66669 5.3335V3.75016C6.66669 3.52004 6.85323 3.3335 7.08335 3.3335C7.31347 3.3335 7.50354 3.14687 7.54295 2.92015C7.66642 2.20992 8.14501 0.833496 10 0.833496C11.855 0.833496 12.3336 2.20992 12.4571 2.92015C12.4965 3.14687 12.6866 3.3335 12.9167 3.3335C13.1468 3.3335 13.3334 3.52004 13.3334 3.75016V5.3335C13.3334 5.60964 13.1095 5.8335 12.8334 5.8335H7.16669C6.89054 5.8335 6.66669 5.60964 6.66669 5.3335Z" stroke="#30AB30" stroke-width="1.25" stroke-linecap="round"/>
<path d="M12.9167 17.0835L14.5834 18.7502L18.75 14.5835" stroke="#30AB30" stroke-width="1.25" stroke-linecap="round" stroke-linejoin="round"/>
</svg>
