<svg width="20" height="20" viewBox="0 0 20 20" fill="none" xmlns="http://www.w3.org/2000/svg">
<path d="M5.83335 15.8333C6.75383 15.8333 7.50002 15.0871 7.50002 14.1667C7.50002 13.2462 6.75383 12.5 5.83335 12.5C4.91288 12.5 4.16669 13.2462 4.16669 14.1667C4.16669 15.0871 4.91288 15.8333 5.83335 15.8333Z" stroke="#30AB30" stroke-width="1.25" stroke-miterlimit="1.5" stroke-linecap="round" stroke-linejoin="round"/>
<path d="M14.1667 15.8333C15.0871 15.8333 15.8333 15.0871 15.8333 14.1667C15.8333 13.2462 15.0871 12.5 14.1667 12.5C13.2462 12.5 12.5 13.2462 12.5 14.1667C12.5 15.0871 13.2462 15.8333 14.1667 15.8333Z" stroke="#30AB30" stroke-width="1.25" stroke-miterlimit="1.5" stroke-linecap="round" stroke-linejoin="round"/>
<path d="M11.6667 14.1667V5.5C11.6667 5.22386 11.4428 5 11.1667 5H2.16669C1.89054 5 1.66669 5.22386 1.66669 5.5V13.6667C1.66669 13.9428 1.89054 14.1667 2.16669 14.1667H3.87502" stroke="#30AB30" stroke-width="1.25" stroke-linecap="round"/>
<path d="M11.6665 14.1665H7.5415" stroke="#30AB30" stroke-width="1.25" stroke-linecap="round"/>
<path d="M11.6667 7.5H16.3418C16.5393 7.5 16.7184 7.61637 16.7987 7.79693L18.2903 11.153C18.3187 11.217 18.3334 11.2861 18.3334 11.3561V13.6667C18.3334 13.9428 18.1095 14.1667 17.8334 14.1667H16.25" stroke="#30AB30" stroke-width="1.25" stroke-linecap="round"/>
<path d="M11.6667 14.1665H12.5" stroke="#30AB30" stroke-width="1.25" stroke-linecap="round"/>
</svg>
