<svg width="20" height="20" viewBox="0 0 20 20" fill="none" xmlns="http://www.w3.org/2000/svg">
<path d="M3.33331 17.8332V2.1665C3.33331 1.89036 3.55717 1.6665 3.83331 1.6665H13.5429C13.6755 1.6665 13.8027 1.71918 13.8964 1.81295L16.5202 4.43672C16.614 4.53049 16.6666 4.65767 16.6666 4.79028V17.8332C16.6666 18.1093 16.4428 18.3332 16.1666 18.3332H3.83331C3.55717 18.3332 3.33331 18.1093 3.33331 17.8332Z" stroke="#716C6C" stroke-width="1.25" stroke-linecap="round" stroke-linejoin="round"/>
<path d="M6.66669 8.3335L13.3334 8.3335" stroke="#716C6C" stroke-width="1.25" stroke-linecap="round" stroke-linejoin="round"/>
<path d="M6.66669 15L13.3334 15" stroke="#716C6C" stroke-width="1.25" stroke-linecap="round" stroke-linejoin="round"/>
<path d="M6.66669 11.6665L10 11.6665" stroke="#716C6C" stroke-width="1.25" stroke-linecap="round" stroke-linejoin="round"/>
<path d="M13.3333 1.6665V4.49984C13.3333 4.77598 13.5572 4.99984 13.8333 4.99984H16.6666" stroke="#716C6C" stroke-width="1.25" stroke-linecap="round" stroke-linejoin="round"/>
</svg>
